<?xml version="1.0" encoding="UTF-8" standalone="no"?>
<svg
   xmlns:dc="http://purl.org/dc/elements/1.1/"
   xmlns:cc="http://creativecommons.org/ns#"
   xmlns:rdf="http://www.w3.org/1999/02/22-rdf-syntax-ns#"
   xmlns:svg="http://www.w3.org/2000/svg"
   xmlns="http://www.w3.org/2000/svg"
   xmlns:sodipodi="http://sodipodi.sourceforge.net/DTD/sodipodi-0.dtd"
   xmlns:inkscape="http://www.inkscape.org/namespaces/inkscape"
   width="210mm"
   height="297mm"
   viewBox="0 0 210 297"
   version="1.1"
   id="svg8"
   inkscape:version="1.0.1 (3bc2e813f5, 2020-09-07)"
   sodipodi:docname="logo.svg">
  <defs
     id="defs2" />
  <sodipodi:namedview
     id="base"
     pagecolor="#ffffff"
     bordercolor="#666666"
     borderopacity="1.0"
     inkscape:pageopacity="0.0"
     inkscape:pageshadow="2"
     inkscape:zoom="0.7"
     inkscape:cx="332.64182"
     inkscape:cy="554.92542"
     inkscape:document-units="mm"
     inkscape:current-layer="layer1"
     inkscape:document-rotation="0"
     showgrid="false"
     inkscape:window-width="1624"
     inkscape:window-height="1020"
     inkscape:window-x="38"
     inkscape:window-y="0"
     inkscape:window-maximized="0" />
  <metadata
     id="metadata5">
    <rdf:RDF>
      <cc:Work
         rdf:about="">
        <dc:format>image/svg+xml</dc:format>
        <dc:type
           rdf:resource="http://purl.org/dc/dcmitype/StillImage" />
        <dc:title />
      </cc:Work>
    </rdf:RDF>
  </metadata>
  <g
     inkscape:label="Layer 1"
     inkscape:groupmode="layer"
     id="layer1">
    <g
       id="g181"
       transform="matrix(0.22456396,0,0,0.35911491,-27.137308,7.3194827)">
      <path
         d="m 134.82467,312.96186 c 28.932,-187.83127 128.90121,-323.419192 246.24343,-328.857502 62.03534,-2.87507 127.31377,31.09346 174.84134,149.961752 84.9606,212.48992 -5.221,359.327 -68.09328,429.101 -30.40161,33.73895 -57.71038,74.41906 -81.31574,120.66651 C 364.03224,767.03696 282.33319,870.42876 185.03332,708.4297 114.51024,591.01257 115.55309,438.07605 134.82467,312.96186 Z"
         fill="#f2f2f2"
         id="path12"
         style="fill:#f9f9f9" />
      <rect
         x="205.35007"
         y="495.51999"
         width="845.65002"
         height="307.43005"
         fill="#3f3d56"
         id="rect14"
         style="fill:#afafe9" />
      <polygon
         points="205.35,652.12 205.35,561.43 301.36,495.52 433.47,495.52 "
         opacity="0.1"
         id="polygon16"
         style="fill:#6f7c91" />
      <polygon
         points="526.81,495.52 658.91,495.52 445.54,642 437.9,647.25 211.09,802.95 205.35,802.95 205.35,716.19 351.5,615.87 356.39,612.51 "
         opacity="0.1"
         id="polygon18"
         style="fill:#6f7c91" />
      <path
         d="m 304.70628,695.10921 -2.27616,-2.85254 c 0.22628,-0.17995 23.03639,-18.16916 59.47047,-28.45863 a 188.15907,188.15907 0 0 1 64.9907,-6.72423 c 27.14817,1.975 54.14177,9.98746 80.23071,23.81544 l -1.70868,3.22493 c -58.04108,-30.76507 -109.53966,-26.11922 -142.5212,-16.80436 -35.73297,10.0917 -57.96536,27.623 -58.18584,27.79939 z"
         transform="translate(-74.49995,-44.90408)"
         fill="#f2f2f2"
         id="path20" />
      <path
         d="m 525.24349,693.68294 c -10.89133,-1.88178 -25.30391,-2.66919 -35.68584,-0.66525 l 14.14621,-11.851 3.28993,-18.1553 c 3.39959,10.0121 11.22012,22.14393 18.2497,30.67155 z"
         transform="translate(-74.49995,-44.90408)"
         fill="#f2f2f2"
         id="path22" />
      <path
         d="m 678.00338,730.78027 a 189.387,189.387 0 0 1 -51.552,-7.21243 C 590.0173,713.27837 567.20719,695.28917 566.98091,695.10921 l 2.27571,-2.85254 c 0.22138,0.17639 22.56423,17.77 58.33551,27.84126 32.95036,9.27834 84.39594,13.88588 142.37154,-16.84623 l 1.70867,3.22493 c -26.08893,13.828 -53.08209,21.8404 -80.23025,23.81545 q -6.71091,0.48907 -13.43871,0.48819 z"
         transform="translate(-74.49995,-44.90408)"
         fill="#f2f2f2"
         id="path24" />
      <path
         d="m 789.79425,693.68294 c -7.02779,8.53069 -14.84829,20.66252 -18.24788,30.67471 l -3.29174,-18.15841 -14.14441,-11.84793 c 10.3819,2.00389 24.79451,1.21653 35.68403,-0.66837 z"
         transform="translate(-74.49995,-44.90408)"
         fill="#f2f2f2"
         id="path26" />
      <path
         d="m 843.84293,695.10921 -2.27705,-2.85254 c 0.22628,-0.17995 23.03684,-18.16916 59.47136,-28.45863 a 188.21906,188.21906 0 0 1 64.99115,-6.72423 c 27.14817,1.975 54.14131,9.98746 80.23031,23.81544 l -1.7087,3.22493 C 986.51023,653.35 935.01031,657.99407 902.02877,667.30982 c -35.73341,10.0917 -57.96577,27.623 -58.18584,27.79939 z"
         transform="translate(-74.49995,-44.90408)"
         fill="#f2f2f2"
         id="path28" />
      <path
         d="m 1064.3797,693.68294 c -10.8914,-1.88178 -25.304,-2.66919 -35.6859,-0.66525 l 14.1463,-11.851 3.29,-18.1553 c 3.3995,10.0121 11.22,22.14393 18.2496,30.67155 z"
         transform="translate(-74.49995,-44.90408)"
         fill="#f2f2f2"
         id="path30" />
      <rect
         x="702.52289"
         y="579.4483"
         width="59.29586"
         height="1.82449"
         fill="#6c63ff"
         id="rect32"
         style="fill:#8080ff" />
      <rect
         x="702.52289"
         y="597.69318"
         width="59.29586"
         height="1.82449"
         fill="#6c63ff"
         id="rect34"
         style="fill:#8080ff" />
      <rect
         x="702.52289"
         y="615.93805"
         width="59.29586"
         height="1.82449"
         fill="#6c63ff"
         id="rect36"
         style="fill:#8787de" />
      <rect
         x="436.14764"
         y="687.09314"
         width="59.29586"
         height="1.82449"
         fill="#6c63ff"
         id="rect38"
         style="fill:#8080ff" />
      <rect
         x="436.14764"
         y="705.33801"
         width="59.29586"
         height="1.82449"
         fill="#6c63ff"
         id="rect40"
         style="fill:#8080ff" />
      <rect
         x="436.14764"
         y="723.58289"
         width="59.29586"
         height="1.82449"
         fill="#6c63ff"
         id="rect42"
         style="fill:#8080ff" />
      <rect
         x="977.10834"
         y="687.09314"
         width="59.29586"
         height="1.82449"
         fill="#6c63ff"
         id="rect44"
         style="fill:#8080ff" />
      <rect
         x="977.10834"
         y="705.33801"
         width="59.29586"
         height="1.82449"
         fill="#6c63ff"
         id="rect46"
         style="fill:#8080ff" />
      <rect
         x="977.10834"
         y="723.58289"
         width="59.29586"
         height="1.82449"
         fill="#6c63ff"
         id="rect48"
         style="fill:#8080ff" />
      <circle
         cx="467.16394"
         cy="659.72577"
         r="11.85917"
         fill="#6c63ff"
         id="circle50"
         style="fill:#8080ff" />
      <circle
         cx="732.62695"
         cy="643.30542"
         r="11.85917"
         fill="#6c63ff"
         id="circle52"
         style="fill:#8080ff" />
      <circle
         cx="1006.3001"
         cy="659.72577"
         r="11.85917"
         fill="#6c63ff"
         id="circle54"
         style="fill:#8080ff" />
      <path
         d="M 422.58125,457.87186 404.91736,438.934 423.85519,421.27012 441.51907,440.208 Z M 407.73288,439.032 422.67924,455.05631 438.70356,440.11 423.75719,424.08569 Z"
         transform="translate(-74.49995,-44.90408)"
         fill="#3f3d56"
         id="path56"
         style="fill:#b7b7c8" />
      <path
         d="M 847.58125,235.87186 829.91736,216.934 848.85519,199.27012 866.51907,218.208 Z M 832.73288,217.032 847.67924,233.05631 863.70356,218.11 848.75719,202.08569 Z"
         transform="translate(-74.49995,-44.90408)"
         fill="#3f3d56"
         id="path58"
         style="fill:#b7b7c8" />
      <path
         d="m 1064.5001,541.96036 h -25.897 v -25.897 h 25.897 z m -23.905,-1.99208 h 21.9129 v -21.91283 h -21.9128 z"
         transform="translate(-74.49995,-44.90408)"
         fill="#3f3d56"
         id="path60"
         style="fill:#b7b7c8" />
      <circle
         cx="606.44989"
         cy="585.84332"
         r="13.2214"
         fill="#6c63ff"
         id="circle62"
         style="fill:#8080ff" />
      <path
         d="m 680.94986,668.94256 a 38.19516,38.19516 0 1 1 38.19514,-38.19515 38.238,38.238 0 0 1 -38.19514,38.19515 z m 0,-73.45222 a 35.25707,35.25707 0 1 0 35.25707,35.25707 35.29746,35.29746 0 0 0 -35.25707,-35.25707 z"
         transform="translate(-74.49995,-44.90408)"
         fill="#f2f2f2"
         id="path64" />
      <rect
         x="532.06952"
         y="267.4046"
         width="110.15278"
         height="128.33333"
         fill="#f2f2f2"
         id="rect66"
         style="fill:#ececec" />
      <path
         d="m 679.27135,632.4449 -1.53054,-1.494 a 78.18365,78.18365 0 0 0 15.68031,-27.43219 c 5.20362,-15.65995 7.74564,-40.3919 -9.69758,-69.282 -17.84688,-29.55907 -18.65,-53.56778 -16.18162,-68.50345 2.68667,-16.25159 9.54041,-25.36119 9.83075,-25.74082 l 1.69972,1.29869 c -0.0684,0.0893 -6.86261,9.15032 -9.44066,24.91732 -2.38014,14.55656 -1.54986,37.98355 15.9226,66.92226 17.88918,29.629 15.23907,55.04767 9.86626,71.15357 -5.8219,17.45051 -15.72992,27.73138 -16.14924,28.16062 z"
         transform="translate(-74.49995,-44.90408)"
         fill="#3f3d56"
         id="path68"
         style="fill:#b7b7c8" />
      <path
         d="m 759.50005,441.71147 h -154 v -154 h 154 z M 607.63894,439.57258 H 757.36116 V 289.85036 H 607.63894 Z"
         transform="translate(-74.49995,-44.90408)"
         fill="#3f3d56"
         id="path70"
         style="fill:#b7b7c8" />
      <rect
         x="563.08344"
         y="287.72406"
         width="94.111107"
         height="2.13889"
         fill="#3f3d56"
         id="rect72"
         style="fill:#b7b7c8" />
      <rect
         x="563.08344"
         y="311.25183"
         width="94.111107"
         height="2.13889"
         fill="#3f3d56"
         id="rect74"
         style="fill:#b7b7c8" />
      <rect
         x="563.08344"
         y="334.7796"
         width="94.111107"
         height="2.13889"
         fill="#3f3d56"
         id="rect76"
         style="fill:#b7b7c8" />
      <rect
         x="731.50006"
         y="409.16623"
         width="2"
         height="51.929691"
         fill="#3f3d56"
         id="rect108"
         style="fill:#b7bec8" />
      <path
         d="m 807,442 c 2.10742,5.6796 5.70313,12.72656 9.51172,17.09473 L 807,455.6543 l -9.50977,3.44043 C 801.29883,454.72656 804.89453,447.6796 807,442 Z"
         transform="translate(-74.49995,-44.90408)"
         fill="#3f3d56"
         id="path110"
         style="fill:#b7bec8" />
      <rect
         x="491.50006"
         y="364.16623"
         width="2"
         height="51.929691"
         fill="#3f3d56"
         id="rect112"
         style="fill:#b7bec8" />
      <path
         d="m 567,397 c 2.10742,5.6796 5.70313,12.72656 9.51172,17.09473 L 567,410.6543 l -9.50977,3.44043 C 561.29883,409.72656 564.89453,402.6796 567,397 Z"
         transform="translate(-74.49995,-44.90408)"
         fill="#3f3d56"
         id="path114"
         style="fill:#b7bec8" />
      <rect
         x="823.50006"
         y="324.16623"
         width="2"
         height="51.929691"
         fill="#3f3d56"
         id="rect116"
         style="fill:#b7bec8" />
      <path
         d="m 899,357 c 2.10742,5.6796 5.70313,12.72656 9.51172,17.09473 L 899,370.6543 l -9.50977,3.44043 C 893.29883,369.72656 896.89453,362.6796 899,357 Z"
         transform="translate(-74.49995,-44.90408)"
         fill="#3f3d56"
         id="path118"
         style="fill:#b7bec8" />
    </g>
  </g>
</svg>
